<svg xmlns="http://www.w3.org/2000/svg" xmlns:xlink="http://www.w3.org/1999/xlink" width="500" zoomAndPan="magnify" viewBox="0 0 375 374.999991" height="500" preserveAspectRatio="xMidYMid meet" version="1.0"><defs><g/><clipPath id="7406a3c5b4"><rect x="0" width="133" y="0" height="21"/></clipPath></defs><g fill="#ffffff" fill-opacity="1"><g transform="translate(38.850625, 202.124987)"><g><path d="M 15.625 -29.15625 C 17.25 -29.15625 18.851562 -28.96875 20.4375 -28.59375 C 22.019531 -28.226562 23.195312 -27.863281 23.96875 -27.5 L 25.125 -26.953125 L 21.921875 -20.546875 C 19.710938 -21.722656 17.613281 -22.3125 15.625 -22.3125 C 14.519531 -22.3125 13.738281 -22.191406 13.28125 -21.953125 C 12.820312 -21.710938 12.59375 -21.257812 12.59375 -20.59375 C 12.59375 -20.445312 12.609375 -20.300781 12.640625 -20.15625 C 12.679688 -20.007812 12.753906 -19.867188 12.859375 -19.734375 C 12.972656 -19.609375 13.078125 -19.5 13.171875 -19.40625 C 13.265625 -19.3125 13.421875 -19.207031 13.640625 -19.09375 C 13.859375 -18.988281 14.03125 -18.910156 14.15625 -18.859375 C 14.289062 -18.804688 14.503906 -18.722656 14.796875 -18.609375 C 15.085938 -18.492188 15.304688 -18.410156 15.453125 -18.359375 C 15.609375 -18.304688 15.859375 -18.222656 16.203125 -18.109375 C 16.554688 -18.003906 16.820312 -17.929688 17 -17.890625 C 18.144531 -17.554688 19.140625 -17.1875 19.984375 -16.78125 C 20.835938 -16.375 21.734375 -15.820312 22.671875 -15.125 C 23.609375 -14.425781 24.332031 -13.539062 24.84375 -12.46875 C 25.363281 -11.40625 25.625 -10.191406 25.625 -8.828125 C 25.625 -2.390625 21.148438 0.828125 12.203125 0.828125 C 10.179688 0.828125 8.257812 0.515625 6.4375 -0.109375 C 4.613281 -0.734375 3.296875 -1.359375 2.484375 -1.984375 L 1.265625 -2.984375 L 5.25 -9.65625 C 5.539062 -9.40625 5.925781 -9.101562 6.40625 -8.75 C 6.882812 -8.40625 7.75 -7.925781 9 -7.3125 C 10.25 -6.707031 11.335938 -6.40625 12.265625 -6.40625 C 14.285156 -6.40625 15.296875 -7.085938 15.296875 -8.453125 C 15.296875 -9.078125 15.035156 -9.5625 14.515625 -9.90625 C 14.003906 -10.257812 13.128906 -10.65625 11.890625 -11.09375 C 10.660156 -11.539062 9.695312 -11.945312 9 -12.3125 C 7.226562 -13.226562 5.828125 -14.265625 4.796875 -15.421875 C 3.773438 -16.585938 3.265625 -18.128906 3.265625 -20.046875 C 3.265625 -22.910156 4.375 -25.144531 6.59375 -26.75 C 8.820312 -28.351562 11.832031 -29.15625 15.625 -29.15625 Z M 15.625 -29.15625 "/></g></g></g><g fill="#ffffff" fill-opacity="1"><g transform="translate(66.460067, 202.124987)"><g><path d="M 18.390625 -21.15625 C 16.546875 -21.15625 14.960938 -20.472656 13.640625 -19.109375 C 12.316406 -17.742188 11.65625 -16.101562 11.65625 -14.1875 C 11.65625 -12.238281 12.316406 -10.582031 13.640625 -9.21875 C 14.960938 -7.851562 16.546875 -7.171875 18.390625 -7.171875 C 19.273438 -7.171875 20.113281 -7.28125 20.90625 -7.5 C 21.695312 -7.726562 22.273438 -7.953125 22.640625 -8.171875 L 23.140625 -8.5 L 26.453125 -1.71875 C 26.191406 -1.53125 25.832031 -1.296875 25.375 -1.015625 C 24.914062 -0.742188 23.863281 -0.367188 22.21875 0.109375 C 20.582031 0.585938 18.828125 0.828125 16.953125 0.828125 C 12.796875 0.828125 9.140625 -0.632812 5.984375 -3.5625 C 2.835938 -6.488281 1.265625 -9.992188 1.265625 -14.078125 C 1.265625 -18.203125 2.835938 -21.742188 5.984375 -24.703125 C 9.140625 -27.671875 12.796875 -29.15625 16.953125 -29.15625 C 18.828125 -29.15625 20.554688 -28.929688 22.140625 -28.484375 C 23.722656 -28.046875 24.847656 -27.609375 25.515625 -27.171875 L 26.453125 -26.5 L 23.140625 -19.828125 C 21.921875 -20.710938 20.335938 -21.15625 18.390625 -21.15625 Z M 18.390625 -21.15625 "/></g></g></g><g fill="#ffffff" fill-opacity="1"><g transform="translate(94.014291, 202.124987)"><g><path d="M 3.3125 0 L 3.3125 -47.484375 L 13.09375 -47.484375 L 13.09375 -25.34375 L 13.203125 -25.34375 C 15.734375 -27.882812 18.4375 -29.15625 21.3125 -29.15625 C 22.707031 -29.15625 24.09375 -28.96875 25.46875 -28.59375 C 26.851562 -28.226562 28.179688 -27.660156 29.453125 -26.890625 C 30.722656 -26.117188 31.753906 -25.023438 32.546875 -23.609375 C 33.335938 -22.191406 33.734375 -20.539062 33.734375 -18.65625 L 33.734375 0 L 23.96875 0 L 23.96875 -16.015625 C 23.96875 -17.484375 23.5 -18.769531 22.5625 -19.875 C 21.625 -20.976562 20.398438 -21.53125 18.890625 -21.53125 C 17.410156 -21.53125 16.070312 -20.957031 14.875 -19.8125 C 13.6875 -18.675781 13.09375 -17.410156 13.09375 -16.015625 L 13.09375 0 Z M 3.3125 0 "/></g></g></g><g fill="#ffffff" fill-opacity="1"><g transform="translate(130.955714, 202.124987)"><g><path d="M 3.3125 0 L 3.3125 -28.328125 L 13.09375 -28.328125 L 13.09375 -25.34375 L 13.203125 -25.34375 C 15.734375 -27.882812 18.4375 -29.15625 21.3125 -29.15625 C 22.707031 -29.15625 24.09375 -28.96875 25.46875 -28.59375 C 26.851562 -28.226562 28.179688 -27.660156 29.453125 -26.890625 C 30.722656 -26.117188 31.753906 -25.023438 32.546875 -23.609375 C 33.335938 -22.191406 33.734375 -20.539062 33.734375 -18.65625 L 33.734375 0 L 23.96875 0 L 23.96875 -16.015625 C 23.96875 -17.484375 23.5 -18.769531 22.5625 -19.875 C 21.625 -20.976562 20.398438 -21.53125 18.890625 -21.53125 C 17.410156 -21.53125 16.070312 -20.957031 14.875 -19.8125 C 13.6875 -18.675781 13.09375 -17.410156 13.09375 -16.015625 L 13.09375 0 Z M 3.3125 0 "/></g></g></g><g fill="#ffffff" fill-opacity="1"><g transform="translate(167.897137, 202.124987)"><g><path d="M 31.96875 -12.8125 L 11.4375 -12.8125 C 11.4375 -10.820312 12.078125 -9.347656 13.359375 -8.390625 C 14.648438 -7.429688 16.050781 -6.953125 17.5625 -6.953125 C 19.144531 -6.953125 20.394531 -7.164062 21.3125 -7.59375 C 22.226562 -8.019531 23.28125 -8.859375 24.46875 -10.109375 L 31.53125 -6.578125 C 28.582031 -1.640625 23.6875 0.828125 16.84375 0.828125 C 12.570312 0.828125 8.90625 -0.632812 5.84375 -3.5625 C 2.789062 -6.488281 1.265625 -10.015625 1.265625 -14.140625 C 1.265625 -18.265625 2.789062 -21.796875 5.84375 -24.734375 C 8.90625 -27.679688 12.570312 -29.15625 16.84375 -29.15625 C 21.332031 -29.15625 24.984375 -27.859375 27.796875 -25.265625 C 30.617188 -22.671875 32.03125 -18.960938 32.03125 -14.140625 C 32.03125 -13.472656 32.007812 -13.03125 31.96875 -12.8125 Z M 11.703125 -18.21875 L 22.46875 -18.21875 C 22.25 -19.695312 21.671875 -20.832031 20.734375 -21.625 C 19.796875 -22.414062 18.59375 -22.8125 17.125 -22.8125 C 15.5 -22.8125 14.207031 -22.382812 13.25 -21.53125 C 12.289062 -20.6875 11.773438 -19.582031 11.703125 -18.21875 Z M 11.703125 -18.21875 "/></g></g></g><g fill="#ffffff" fill-opacity="1"><g transform="translate(201.635874, 202.124987)"><g><path d="M 2.046875 6.953125 L 10.046875 3.03125 C 11.523438 5.46875 14.082031 6.6875 17.71875 6.6875 C 19.414062 6.6875 20.988281 6.140625 22.4375 5.046875 C 23.894531 3.960938 24.625 2.300781 24.625 0.0625 L 24.625 -2.046875 C 22.894531 -0.128906 19.800781 0.828125 15.34375 0.828125 C 11.257812 0.828125 7.890625 -0.613281 5.234375 -3.5 C 2.585938 -6.394531 1.265625 -9.941406 1.265625 -14.140625 C 1.265625 -18.335938 2.585938 -21.890625 5.234375 -24.796875 C 7.890625 -27.703125 11.257812 -29.15625 15.34375 -29.15625 C 18.988281 -29.15625 22.03125 -28.03125 24.46875 -25.78125 L 24.625 -25.78125 L 24.625 -28.328125 L 34.40625 -28.328125 L 34.40625 0.765625 C 34.40625 5.367188 32.875 8.921875 29.8125 11.421875 C 26.757812 13.929688 22.726562 15.1875 17.71875 15.1875 C 9.625 15.1875 4.398438 12.441406 2.046875 6.953125 Z M 13.5625 -18.9375 C 12.289062 -17.6875 11.65625 -16.082031 11.65625 -14.125 C 11.65625 -12.175781 12.257812 -10.585938 13.46875 -9.359375 C 14.6875 -8.128906 16.289062 -7.515625 18.28125 -7.515625 C 20.195312 -7.515625 21.769531 -8.140625 23 -9.390625 C 24.226562 -10.640625 24.84375 -12.222656 24.84375 -14.140625 C 24.84375 -16.085938 24.207031 -17.6875 22.9375 -18.9375 C 21.664062 -20.1875 20.113281 -20.8125 18.28125 -20.8125 C 16.40625 -20.8125 14.832031 -20.1875 13.5625 -18.9375 Z M 13.5625 -18.9375 "/></g></g></g><g fill="#ffffff" fill-opacity="1"><g transform="translate(239.79211, 202.124987)"><g><path d="M 2.046875 6.953125 L 10.046875 3.03125 C 11.523438 5.46875 14.082031 6.6875 17.71875 6.6875 C 19.414062 6.6875 20.988281 6.140625 22.4375 5.046875 C 23.894531 3.960938 24.625 2.300781 24.625 0.0625 L 24.625 -2.046875 C 22.894531 -0.128906 19.800781 0.828125 15.34375 0.828125 C 11.257812 0.828125 7.890625 -0.613281 5.234375 -3.5 C 2.585938 -6.394531 1.265625 -9.941406 1.265625 -14.140625 C 1.265625 -18.335938 2.585938 -21.890625 5.234375 -24.796875 C 7.890625 -27.703125 11.257812 -29.15625 15.34375 -29.15625 C 18.988281 -29.15625 22.03125 -28.03125 24.46875 -25.78125 L 24.625 -25.78125 L 24.625 -28.328125 L 34.40625 -28.328125 L 34.40625 0.765625 C 34.40625 5.367188 32.875 8.921875 29.8125 11.421875 C 26.757812 13.929688 22.726562 15.1875 17.71875 15.1875 C 9.625 15.1875 4.398438 12.441406 2.046875 6.953125 Z M 13.5625 -18.9375 C 12.289062 -17.6875 11.65625 -16.082031 11.65625 -14.125 C 11.65625 -12.175781 12.257812 -10.585938 13.46875 -9.359375 C 14.6875 -8.128906 16.289062 -7.515625 18.28125 -7.515625 C 20.195312 -7.515625 21.769531 -8.140625 23 -9.390625 C 24.226562 -10.640625 24.84375 -12.222656 24.84375 -14.140625 C 24.84375 -16.085938 24.207031 -17.6875 22.9375 -18.9375 C 21.664062 -20.1875 20.113281 -20.8125 18.28125 -20.8125 C 16.40625 -20.8125 14.832031 -20.1875 13.5625 -18.9375 Z M 13.5625 -18.9375 "/></g></g></g><g fill="#ffffff" fill-opacity="1"><g transform="translate(277.948357, 202.124987)"><g><path d="M 31.96875 -12.8125 L 11.4375 -12.8125 C 11.4375 -10.820312 12.078125 -9.347656 13.359375 -8.390625 C 14.648438 -7.429688 16.050781 -6.953125 17.5625 -6.953125 C 19.144531 -6.953125 20.394531 -7.164062 21.3125 -7.59375 C 22.226562 -8.019531 23.28125 -8.859375 24.46875 -10.109375 L 31.53125 -6.578125 C 28.582031 -1.640625 23.6875 0.828125 16.84375 0.828125 C 12.570312 0.828125 8.90625 -0.632812 5.84375 -3.5625 C 2.789062 -6.488281 1.265625 -10.015625 1.265625 -14.140625 C 1.265625 -18.265625 2.789062 -21.796875 5.84375 -24.734375 C 8.90625 -27.679688 12.570312 -29.15625 16.84375 -29.15625 C 21.332031 -29.15625 24.984375 -27.859375 27.796875 -25.265625 C 30.617188 -22.671875 32.03125 -18.960938 32.03125 -14.140625 C 32.03125 -13.472656 32.007812 -13.03125 31.96875 -12.8125 Z M 11.703125 -18.21875 L 22.46875 -18.21875 C 22.25 -19.695312 21.671875 -20.832031 20.734375 -21.625 C 19.796875 -22.414062 18.59375 -22.8125 17.125 -22.8125 C 15.5 -22.8125 14.207031 -22.382812 13.25 -21.53125 C 12.289062 -20.6875 11.773438 -19.582031 11.703125 -18.21875 Z M 11.703125 -18.21875 "/></g></g></g><g fill="#ffffff" fill-opacity="1"><g transform="translate(311.687094, 202.124987)"><g><path d="M 9.609375 -11.8125 C 11.378906 -11.8125 12.878906 -11.191406 14.109375 -9.953125 C 15.335938 -8.722656 15.953125 -7.226562 15.953125 -5.46875 C 15.953125 -3.738281 15.335938 -2.253906 14.109375 -1.015625 C 12.878906 0.210938 11.378906 0.828125 9.609375 0.828125 C 7.878906 0.828125 6.394531 0.210938 5.15625 -1.015625 C 3.925781 -2.253906 3.3125 -3.738281 3.3125 -5.46875 C 3.3125 -7.226562 3.925781 -8.722656 5.15625 -9.953125 C 6.394531 -11.191406 7.878906 -11.8125 9.609375 -11.8125 Z M 9.609375 -11.8125 "/></g></g></g><g transform="matrix(1, 0, 0, 1, 120, 231)"><g clip-path="url(#7406a3c5b4)"><g fill="#ffffff" fill-opacity="1"><g transform="translate(0.737787, 7.734189)"><g><path d="M 2.8125 0 L 0.5 0 L 0.5 -5.609375 L 2.71875 -5.609375 C 3.40625 -5.609375 3.898438 -5.457031 4.203125 -5.15625 C 4.441406 -4.925781 4.5625 -4.609375 4.5625 -4.203125 C 4.5625 -3.890625 4.488281 -3.617188 4.34375 -3.390625 C 4.195312 -3.160156 3.988281 -3.015625 3.71875 -2.953125 C 4.082031 -2.890625 4.359375 -2.742188 4.546875 -2.515625 C 4.742188 -2.285156 4.84375 -1.992188 4.84375 -1.640625 C 4.84375 -1.367188 4.796875 -1.128906 4.703125 -0.921875 C 4.609375 -0.722656 4.488281 -0.5625 4.34375 -0.4375 C 4.175781 -0.3125 3.992188 -0.210938 3.796875 -0.140625 C 3.597656 -0.078125 3.410156 -0.0351562 3.234375 -0.015625 C 3.066406 -0.00390625 2.925781 0 2.8125 0 Z M 1.5625 -4.671875 L 1.5625 -3.28125 L 2.65625 -3.28125 C 2.925781 -3.28125 3.128906 -3.335938 3.265625 -3.453125 C 3.410156 -3.578125 3.484375 -3.753906 3.484375 -3.984375 C 3.484375 -4.203125 3.421875 -4.363281 3.296875 -4.46875 C 3.140625 -4.601562 2.867188 -4.671875 2.484375 -4.671875 Z M 1.5625 -2.421875 L 1.5625 -0.953125 L 2.6875 -0.953125 C 2.832031 -0.953125 2.988281 -0.960938 3.15625 -0.984375 C 3.320312 -1.003906 3.457031 -1.066406 3.5625 -1.171875 C 3.632812 -1.222656 3.6875 -1.289062 3.71875 -1.375 C 3.757812 -1.46875 3.78125 -1.582031 3.78125 -1.71875 C 3.78125 -1.9375 3.726562 -2.09375 3.625 -2.1875 C 3.519531 -2.289062 3.394531 -2.351562 3.25 -2.375 C 3.101562 -2.40625 2.953125 -2.421875 2.796875 -2.421875 Z M 1.5625 -2.421875 "/></g></g></g><g fill="#ffffff" fill-opacity="1"><g transform="translate(7.041617, 7.734189)"><g><path d="M 1.5625 0 L 0.5 0 L 0.5 -5.609375 L 1.5625 -5.609375 Z M 1.5625 0 "/></g></g></g><g fill="#ffffff" fill-opacity="1"><g transform="translate(10.267176, 7.734189)"><g><path d="M 3.015625 0.109375 C 2.546875 0.109375 2.140625 0.03125 1.796875 -0.125 C 1.453125 -0.289062 1.171875 -0.503906 0.953125 -0.765625 C 0.734375 -1.035156 0.566406 -1.347656 0.453125 -1.703125 C 0.335938 -2.054688 0.28125 -2.425781 0.28125 -2.8125 C 0.28125 -3.195312 0.335938 -3.5625 0.453125 -3.90625 C 0.566406 -4.257812 0.734375 -4.570312 0.953125 -4.84375 C 1.171875 -5.113281 1.453125 -5.328125 1.796875 -5.484375 C 2.140625 -5.640625 2.546875 -5.71875 3.015625 -5.71875 C 3.472656 -5.71875 3.875 -5.640625 4.21875 -5.484375 C 4.5625 -5.328125 4.84375 -5.113281 5.0625 -4.84375 C 5.289062 -4.570312 5.457031 -4.257812 5.5625 -3.90625 C 5.675781 -3.5625 5.734375 -3.195312 5.734375 -2.8125 C 5.734375 -2.425781 5.675781 -2.054688 5.5625 -1.703125 C 5.457031 -1.347656 5.289062 -1.035156 5.0625 -0.765625 C 4.84375 -0.503906 4.5625 -0.289062 4.21875 -0.125 C 3.875 0.03125 3.472656 0.109375 3.015625 0.109375 Z M 3.015625 -0.84375 C 3.359375 -0.84375 3.648438 -0.925781 3.890625 -1.09375 C 4.128906 -1.257812 4.3125 -1.488281 4.4375 -1.78125 C 4.570312 -2.082031 4.640625 -2.425781 4.640625 -2.8125 C 4.640625 -3.195312 4.570312 -3.535156 4.4375 -3.828125 C 4.3125 -4.117188 4.128906 -4.347656 3.890625 -4.515625 C 3.648438 -4.679688 3.359375 -4.765625 3.015625 -4.765625 C 2.671875 -4.765625 2.378906 -4.679688 2.140625 -4.515625 C 1.898438 -4.347656 1.710938 -4.117188 1.578125 -3.828125 C 1.453125 -3.535156 1.390625 -3.195312 1.390625 -2.8125 C 1.390625 -2.425781 1.453125 -2.082031 1.578125 -1.78125 C 1.710938 -1.488281 1.898438 -1.257812 2.140625 -1.09375 C 2.378906 -0.925781 2.671875 -0.84375 3.015625 -0.84375 Z M 3.015625 -0.84375 "/></g></g></g><g fill="#ffffff" fill-opacity="1"><g transform="translate(17.469456, 7.734189)"><g><path d="M 2.5 -1.96875 L 0.1875 -1.96875 L 0.1875 -2.8125 L 2.5 -2.8125 Z M 2.5 -1.96875 "/></g></g></g><g fill="#ffffff" fill-opacity="1"><g transform="translate(21.32098, 7.734189)"><g><path d="M 2.734375 0.109375 C 2.460938 0.109375 2.1875 0.0703125 1.90625 0 C 1.632812 -0.0625 1.378906 -0.164062 1.140625 -0.3125 C 0.898438 -0.457031 0.703125 -0.65625 0.546875 -0.90625 C 0.390625 -1.15625 0.289062 -1.460938 0.25 -1.828125 L 1.359375 -1.828125 C 1.421875 -1.554688 1.519531 -1.347656 1.65625 -1.203125 C 1.800781 -1.054688 1.96875 -0.953125 2.15625 -0.890625 C 2.34375 -0.828125 2.535156 -0.796875 2.734375 -0.796875 C 3.023438 -0.796875 3.269531 -0.859375 3.46875 -0.984375 C 3.664062 -1.109375 3.765625 -1.304688 3.765625 -1.578125 C 3.765625 -1.773438 3.695312 -1.925781 3.5625 -2.03125 C 3.4375 -2.132812 3.269531 -2.21875 3.0625 -2.28125 C 2.863281 -2.34375 2.644531 -2.398438 2.40625 -2.453125 C 2.175781 -2.503906 1.945312 -2.5625 1.71875 -2.625 C 1.488281 -2.6875 1.273438 -2.773438 1.078125 -2.890625 C 0.878906 -3.003906 0.722656 -3.15625 0.609375 -3.34375 C 0.492188 -3.53125 0.4375 -3.769531 0.4375 -4.0625 C 0.4375 -4.425781 0.523438 -4.726562 0.703125 -4.96875 C 0.878906 -5.21875 1.113281 -5.40625 1.40625 -5.53125 C 1.707031 -5.65625 2.046875 -5.71875 2.421875 -5.71875 C 2.785156 -5.71875 3.128906 -5.648438 3.453125 -5.515625 C 3.773438 -5.390625 4.046875 -5.195312 4.265625 -4.9375 C 4.484375 -4.6875 4.625 -4.351562 4.6875 -3.9375 L 3.59375 -3.9375 C 3.53125 -4.238281 3.390625 -4.457031 3.171875 -4.59375 C 2.953125 -4.738281 2.695312 -4.8125 2.40625 -4.8125 C 2.144531 -4.8125 1.925781 -4.753906 1.75 -4.640625 C 1.582031 -4.535156 1.5 -4.375 1.5 -4.15625 C 1.5 -3.988281 1.554688 -3.851562 1.671875 -3.75 C 1.796875 -3.65625 1.953125 -3.578125 2.140625 -3.515625 C 2.335938 -3.460938 2.550781 -3.410156 2.78125 -3.359375 C 3.019531 -3.304688 3.253906 -3.242188 3.484375 -3.171875 C 3.722656 -3.097656 3.941406 -3 4.140625 -2.875 C 4.347656 -2.757812 4.515625 -2.601562 4.640625 -2.40625 C 4.765625 -2.207031 4.828125 -1.945312 4.828125 -1.625 C 4.828125 -1.09375 4.640625 -0.671875 4.265625 -0.359375 C 3.898438 -0.046875 3.390625 0.109375 2.734375 0.109375 Z M 2.734375 0.109375 "/></g></g></g><g fill="#ffffff" fill-opacity="1"><g transform="translate(27.610089, 7.734189)"><g><path d="M 1.15625 0 L 0.046875 0 L 2.03125 -5.609375 L 3.1875 -5.609375 L 5.171875 0 L 4.0625 0 L 3.671875 -1.15625 L 1.53125 -1.15625 Z M 2.609375 -4.453125 L 1.84375 -2.078125 L 3.390625 -2.078125 Z M 2.609375 -4.453125 "/></g></g></g><g fill="#ffffff" fill-opacity="1"><g transform="translate(34.002297, 7.734189)"><g><path d="M 2.703125 0.109375 C 2.171875 0.109375 1.738281 0.0195312 1.40625 -0.15625 C 1.070312 -0.34375 0.828125 -0.597656 0.671875 -0.921875 C 0.515625 -1.242188 0.4375 -1.613281 0.4375 -2.03125 L 0.4375 -5.609375 L 1.515625 -5.609375 L 1.515625 -2.03125 C 1.515625 -1.800781 1.550781 -1.59375 1.625 -1.40625 C 1.695312 -1.226562 1.820312 -1.085938 2 -0.984375 C 2.175781 -0.890625 2.410156 -0.84375 2.703125 -0.84375 C 3.015625 -0.84375 3.253906 -0.890625 3.421875 -0.984375 C 3.597656 -1.085938 3.722656 -1.226562 3.796875 -1.40625 C 3.867188 -1.59375 3.90625 -1.800781 3.90625 -2.03125 L 3.90625 -5.609375 L 4.96875 -5.609375 L 4.96875 -2.03125 C 4.96875 -1.613281 4.890625 -1.242188 4.734375 -0.921875 C 4.585938 -0.597656 4.347656 -0.34375 4.015625 -0.15625 C 3.679688 0.0195312 3.242188 0.109375 2.703125 0.109375 Z M 2.703125 0.109375 "/></g></g></g><g fill="#ffffff" fill-opacity="1"><g transform="translate(40.593334, 7.734189)"><g><path d="M 4.25 0 L 0.5 0 L 0.5 -5.609375 L 4.25 -5.609375 L 4.25 -4.671875 L 1.5625 -4.671875 L 1.5625 -3.28125 L 3.96875 -3.28125 L 3.96875 -2.34375 L 1.5625 -2.34375 L 1.5625 -0.953125 L 4.25 -0.953125 Z M 4.25 0 "/></g></g></g><g fill="#ffffff" fill-opacity="1"><g transform="translate(46.330119, 7.734189)"><g><path d="M 3.8125 -2.4375 L 4.828125 0 L 3.703125 0 L 2.8125 -2.25 L 1.5625 -2.25 L 1.5625 0 L 0.5 0 L 0.5 -5.609375 L 2.921875 -5.609375 C 3.273438 -5.609375 3.582031 -5.550781 3.84375 -5.4375 C 4.113281 -5.320312 4.320312 -5.144531 4.46875 -4.90625 C 4.625 -4.664062 4.703125 -4.347656 4.703125 -3.953125 C 4.703125 -3.585938 4.625 -3.273438 4.46875 -3.015625 C 4.3125 -2.753906 4.09375 -2.5625 3.8125 -2.4375 Z M 2.78125 -4.671875 L 1.5625 -4.671875 L 1.5625 -3.171875 L 2.78125 -3.171875 C 3.0625 -3.171875 3.273438 -3.234375 3.421875 -3.359375 C 3.578125 -3.484375 3.65625 -3.671875 3.65625 -3.921875 C 3.65625 -4.160156 3.578125 -4.34375 3.421875 -4.46875 C 3.265625 -4.601562 3.050781 -4.671875 2.78125 -4.671875 Z M 2.78125 -4.671875 "/></g></g></g><g fill="#ffffff" fill-opacity="1"><g transform="translate(52.567669, 7.734189)"><g><path d="M 2.84375 0 L 1.78125 0 L 1.78125 -4.671875 L 0.078125 -4.671875 L 0.078125 -5.609375 L 4.5625 -5.609375 L 4.5625 -4.671875 L 2.84375 -4.671875 Z M 2.84375 0 "/></g></g></g><g fill="#ffffff" fill-opacity="1"><g transform="translate(58.370734, 7.734189)"><g><path d="M 4.25 0 L 0.5 0 L 0.5 -5.609375 L 4.25 -5.609375 L 4.25 -4.671875 L 1.5625 -4.671875 L 1.5625 -3.28125 L 3.96875 -3.28125 L 3.96875 -2.34375 L 1.5625 -2.34375 L 1.5625 -0.953125 L 4.25 -0.953125 Z M 4.25 0 "/></g></g></g><g fill="#ffffff" fill-opacity="1"><g transform="translate(64.107518, 7.734189)"><g><path d="M 1.5625 0 L 0.5 0 L 0.5 -5.609375 L 1.5625 -5.609375 Z M 1.5625 0 "/></g></g></g><g fill="#ffffff" fill-opacity="1"><g transform="translate(67.333077, 7.734189)"><g><path d="M 3.03125 0.109375 C 2.550781 0.109375 2.140625 0.03125 1.796875 -0.125 C 1.453125 -0.289062 1.164062 -0.507812 0.9375 -0.78125 C 0.71875 -1.050781 0.550781 -1.359375 0.4375 -1.703125 C 0.332031 -2.054688 0.28125 -2.425781 0.28125 -2.8125 C 0.28125 -3.195312 0.332031 -3.5625 0.4375 -3.90625 C 0.550781 -4.257812 0.71875 -4.570312 0.9375 -4.84375 C 1.164062 -5.113281 1.453125 -5.328125 1.796875 -5.484375 C 2.140625 -5.640625 2.550781 -5.71875 3.03125 -5.71875 C 3.75 -5.71875 4.320312 -5.546875 4.75 -5.203125 C 5.1875 -4.859375 5.460938 -4.410156 5.578125 -3.859375 L 4.40625 -3.859375 C 4.3125 -4.148438 4.148438 -4.375 3.921875 -4.53125 C 3.691406 -4.6875 3.390625 -4.765625 3.015625 -4.765625 C 2.660156 -4.765625 2.363281 -4.675781 2.125 -4.5 C 1.882812 -4.332031 1.703125 -4.101562 1.578125 -3.8125 C 1.453125 -3.519531 1.390625 -3.1875 1.390625 -2.8125 C 1.390625 -2.4375 1.453125 -2.097656 1.578125 -1.796875 C 1.710938 -1.503906 1.90625 -1.269531 2.15625 -1.09375 C 2.40625 -0.925781 2.722656 -0.84375 3.109375 -0.84375 C 3.554688 -0.84375 3.910156 -0.953125 4.171875 -1.171875 C 4.429688 -1.398438 4.5625 -1.734375 4.5625 -2.171875 L 3.328125 -2.171875 L 3.328125 -3.046875 L 5.625 -3.046875 L 5.625 0 L 4.65625 0 L 4.65625 -0.640625 C 4.457031 -0.359375 4.207031 -0.160156 3.90625 -0.046875 C 3.613281 0.0546875 3.320312 0.109375 3.03125 0.109375 Z M 3.03125 0.109375 "/></g></g></g><g fill="#ffffff" fill-opacity="1"><g transform="translate(74.527988, 7.734189)"><g><path d="M 2.734375 0.109375 C 2.460938 0.109375 2.1875 0.0703125 1.90625 0 C 1.632812 -0.0625 1.378906 -0.164062 1.140625 -0.3125 C 0.898438 -0.457031 0.703125 -0.65625 0.546875 -0.90625 C 0.390625 -1.15625 0.289062 -1.460938 0.25 -1.828125 L 1.359375 -1.828125 C 1.421875 -1.554688 1.519531 -1.347656 1.65625 -1.203125 C 1.800781 -1.054688 1.96875 -0.953125 2.15625 -0.890625 C 2.34375 -0.828125 2.535156 -0.796875 2.734375 -0.796875 C 3.023438 -0.796875 3.269531 -0.859375 3.46875 -0.984375 C 3.664062 -1.109375 3.765625 -1.304688 3.765625 -1.578125 C 3.765625 -1.773438 3.695312 -1.925781 3.5625 -2.03125 C 3.4375 -2.132812 3.269531 -2.21875 3.0625 -2.28125 C 2.863281 -2.34375 2.644531 -2.398438 2.40625 -2.453125 C 2.175781 -2.503906 1.945312 -2.5625 1.71875 -2.625 C 1.488281 -2.6875 1.273438 -2.773438 1.078125 -2.890625 C 0.878906 -3.003906 0.722656 -3.15625 0.609375 -3.34375 C 0.492188 -3.53125 0.4375 -3.769531 0.4375 -4.0625 C 0.4375 -4.425781 0.523438 -4.726562 0.703125 -4.96875 C 0.878906 -5.21875 1.113281 -5.40625 1.40625 -5.53125 C 1.707031 -5.65625 2.046875 -5.71875 2.421875 -5.71875 C 2.785156 -5.71875 3.128906 -5.648438 3.453125 -5.515625 C 3.773438 -5.390625 4.046875 -5.195312 4.265625 -4.9375 C 4.484375 -4.6875 4.625 -4.351562 4.6875 -3.9375 L 3.59375 -3.9375 C 3.53125 -4.238281 3.390625 -4.457031 3.171875 -4.59375 C 2.953125 -4.738281 2.695312 -4.8125 2.40625 -4.8125 C 2.144531 -4.8125 1.925781 -4.753906 1.75 -4.640625 C 1.582031 -4.535156 1.5 -4.375 1.5 -4.15625 C 1.5 -3.988281 1.554688 -3.851562 1.671875 -3.75 C 1.796875 -3.65625 1.953125 -3.578125 2.140625 -3.515625 C 2.335938 -3.460938 2.550781 -3.410156 2.78125 -3.359375 C 3.019531 -3.304688 3.253906 -3.242188 3.484375 -3.171875 C 3.722656 -3.097656 3.941406 -3 4.140625 -2.875 C 4.347656 -2.757812 4.515625 -2.601562 4.640625 -2.40625 C 4.765625 -2.207031 4.828125 -1.945312 4.828125 -1.625 C 4.828125 -1.09375 4.640625 -0.671875 4.265625 -0.359375 C 3.898438 -0.046875 3.390625 0.109375 2.734375 0.109375 Z M 2.734375 0.109375 "/></g></g></g><g fill="#ffffff" fill-opacity="1"><g transform="translate(80.817098, 7.734189)"><g><path d="M 3.015625 0.109375 C 2.546875 0.109375 2.140625 0.03125 1.796875 -0.125 C 1.453125 -0.289062 1.171875 -0.503906 0.953125 -0.765625 C 0.734375 -1.035156 0.566406 -1.347656 0.453125 -1.703125 C 0.335938 -2.054688 0.28125 -2.425781 0.28125 -2.8125 C 0.28125 -3.195312 0.335938 -3.5625 0.453125 -3.90625 C 0.566406 -4.257812 0.734375 -4.570312 0.953125 -4.84375 C 1.171875 -5.113281 1.453125 -5.328125 1.796875 -5.484375 C 2.140625 -5.640625 2.546875 -5.71875 3.015625 -5.71875 C 3.472656 -5.71875 3.867188 -5.640625 4.203125 -5.484375 C 4.546875 -5.328125 4.816406 -5.109375 5.015625 -4.828125 C 5.222656 -4.546875 5.347656 -4.222656 5.390625 -3.859375 L 4.234375 -3.859375 C 4.191406 -4.160156 4.054688 -4.382812 3.828125 -4.53125 C 3.597656 -4.6875 3.316406 -4.765625 2.984375 -4.765625 C 2.640625 -4.765625 2.347656 -4.679688 2.109375 -4.515625 C 1.878906 -4.359375 1.703125 -4.128906 1.578125 -3.828125 C 1.453125 -3.535156 1.390625 -3.195312 1.390625 -2.8125 C 1.390625 -2.425781 1.453125 -2.082031 1.578125 -1.78125 C 1.703125 -1.488281 1.878906 -1.257812 2.109375 -1.09375 C 2.347656 -0.925781 2.640625 -0.84375 2.984375 -0.84375 C 3.316406 -0.84375 3.59375 -0.921875 3.8125 -1.078125 C 4.039062 -1.242188 4.179688 -1.492188 4.234375 -1.828125 L 5.390625 -1.828125 C 5.347656 -1.441406 5.222656 -1.101562 5.015625 -0.8125 C 4.816406 -0.519531 4.546875 -0.289062 4.203125 -0.125 C 3.867188 0.03125 3.472656 0.109375 3.015625 0.109375 Z M 3.015625 0.109375 "/></g></g></g><g fill="#ffffff" fill-opacity="1"><g transform="translate(87.629072, 7.734189)"><g><path d="M 1.5625 0 L 0.5 0 L 0.5 -5.609375 L 1.5625 -5.609375 L 1.5625 -3.296875 L 3.96875 -3.296875 L 3.96875 -5.609375 L 5.03125 -5.609375 L 5.03125 0 L 3.96875 0 L 3.96875 -2.34375 L 1.5625 -2.34375 Z M 1.5625 0 "/></g></g></g><g fill="#ffffff" fill-opacity="1"><g transform="translate(94.330578, 7.734189)"><g><path d="M 1.5625 0 L 0.5 0 L 0.5 -5.609375 L 1.6875 -5.609375 L 4 -1.59375 L 4 -5.609375 L 5.0625 -5.609375 L 5.0625 0 L 3.859375 0 L 1.5625 -4.03125 Z M 1.5625 0 "/></g></g></g><g fill="#ffffff" fill-opacity="1"><g transform="translate(101.054173, 7.734189)"><g><path d="M 4.25 0 L 0.5 0 L 0.5 -5.609375 L 4.25 -5.609375 L 4.25 -4.671875 L 1.5625 -4.671875 L 1.5625 -3.28125 L 3.96875 -3.28125 L 3.96875 -2.34375 L 1.5625 -2.34375 L 1.5625 -0.953125 L 4.25 -0.953125 Z M 4.25 0 "/></g></g></g><g fill="#ffffff" fill-opacity="1"><g transform="translate(106.790958, 7.734189)"><g><path d="M 3.015625 0.109375 C 2.546875 0.109375 2.140625 0.03125 1.796875 -0.125 C 1.453125 -0.289062 1.171875 -0.503906 0.953125 -0.765625 C 0.734375 -1.035156 0.566406 -1.347656 0.453125 -1.703125 C 0.335938 -2.054688 0.28125 -2.425781 0.28125 -2.8125 C 0.28125 -3.195312 0.335938 -3.5625 0.453125 -3.90625 C 0.566406 -4.257812 0.734375 -4.570312 0.953125 -4.84375 C 1.171875 -5.113281 1.453125 -5.328125 1.796875 -5.484375 C 2.140625 -5.640625 2.546875 -5.71875 3.015625 -5.71875 C 3.472656 -5.71875 3.867188 -5.640625 4.203125 -5.484375 C 4.546875 -5.328125 4.816406 -5.109375 5.015625 -4.828125 C 5.222656 -4.546875 5.347656 -4.222656 5.390625 -3.859375 L 4.234375 -3.859375 C 4.191406 -4.160156 4.054688 -4.382812 3.828125 -4.53125 C 3.597656 -4.6875 3.316406 -4.765625 2.984375 -4.765625 C 2.640625 -4.765625 2.347656 -4.679688 2.109375 -4.515625 C 1.878906 -4.359375 1.703125 -4.128906 1.578125 -3.828125 C 1.453125 -3.535156 1.390625 -3.195312 1.390625 -2.8125 C 1.390625 -2.425781 1.453125 -2.082031 1.578125 -1.78125 C 1.703125 -1.488281 1.878906 -1.257812 2.109375 -1.09375 C 2.347656 -0.925781 2.640625 -0.84375 2.984375 -0.84375 C 3.316406 -0.84375 3.59375 -0.921875 3.8125 -1.078125 C 4.039062 -1.242188 4.179688 -1.492188 4.234375 -1.828125 L 5.390625 -1.828125 C 5.347656 -1.441406 5.222656 -1.101562 5.015625 -0.8125 C 4.816406 -0.519531 4.546875 -0.289062 4.203125 -0.125 C 3.867188 0.03125 3.472656 0.109375 3.015625 0.109375 Z M 3.015625 0.109375 "/></g></g></g><g fill="#ffffff" fill-opacity="1"><g transform="translate(113.602932, 7.734189)"><g><path d="M 1.5625 0 L 0.5 0 L 0.5 -5.609375 L 1.5625 -5.609375 L 1.5625 -3.125 L 3.546875 -5.609375 L 4.828125 -5.609375 L 2.59375 -2.90625 L 4.90625 0 L 3.59375 0 L 1.5625 -2.609375 Z M 1.5625 0 "/></g></g></g><g fill="#ffffff" fill-opacity="1"><g transform="translate(119.700564, 7.734189)"><g><path d="M 4.25 0 L 0.5 0 L 0.5 -5.609375 L 4.25 -5.609375 L 4.25 -4.671875 L 1.5625 -4.671875 L 1.5625 -3.28125 L 3.96875 -3.28125 L 3.96875 -2.34375 L 1.5625 -2.34375 L 1.5625 -0.953125 L 4.25 -0.953125 Z M 4.25 0 "/></g></g></g><g fill="#ffffff" fill-opacity="1"><g transform="translate(125.437349, 7.734189)"><g><path d="M 1.5625 0 L 0.5 0 L 0.5 -5.609375 L 1.6875 -5.609375 L 4 -1.59375 L 4 -5.609375 L 5.0625 -5.609375 L 5.0625 0 L 3.859375 0 L 1.5625 -4.03125 Z M 1.5625 0 "/></g></g></g><g fill="#ffffff" fill-opacity="1"><g transform="translate(52.105362, 18.166879)"><g><path d="M 4.25 0 L 0.5 0 L 0.5 -5.609375 L 4.25 -5.609375 L 4.25 -4.671875 L 1.5625 -4.671875 L 1.5625 -3.28125 L 3.96875 -3.28125 L 3.96875 -2.34375 L 1.5625 -2.34375 L 1.5625 -0.953125 L 4.25 -0.953125 Z M 4.25 0 "/></g></g></g><g fill="#ffffff" fill-opacity="1"><g transform="translate(57.842147, 18.166879)"><g><path d="M 2.734375 0.109375 C 2.460938 0.109375 2.1875 0.0703125 1.90625 0 C 1.632812 -0.0625 1.378906 -0.164062 1.140625 -0.3125 C 0.898438 -0.457031 0.703125 -0.65625 0.546875 -0.90625 C 0.390625 -1.15625 0.289062 -1.460938 0.25 -1.828125 L 1.359375 -1.828125 C 1.421875 -1.554688 1.519531 -1.347656 1.65625 -1.203125 C 1.800781 -1.054688 1.96875 -0.953125 2.15625 -0.890625 C 2.34375 -0.828125 2.535156 -0.796875 2.734375 -0.796875 C 3.023438 -0.796875 3.269531 -0.859375 3.46875 -0.984375 C 3.664062 -1.109375 3.765625 -1.304688 3.765625 -1.578125 C 3.765625 -1.773438 3.695312 -1.925781 3.5625 -2.03125 C 3.4375 -2.132812 3.269531 -2.21875 3.0625 -2.28125 C 2.863281 -2.34375 2.644531 -2.398438 2.40625 -2.453125 C 2.175781 -2.503906 1.945312 -2.5625 1.71875 -2.625 C 1.488281 -2.6875 1.273438 -2.773438 1.078125 -2.890625 C 0.878906 -3.003906 0.722656 -3.15625 0.609375 -3.34375 C 0.492188 -3.53125 0.4375 -3.769531 0.4375 -4.0625 C 0.4375 -4.425781 0.523438 -4.726562 0.703125 -4.96875 C 0.878906 -5.21875 1.113281 -5.40625 1.40625 -5.53125 C 1.707031 -5.65625 2.046875 -5.71875 2.421875 -5.71875 C 2.785156 -5.71875 3.128906 -5.648438 3.453125 -5.515625 C 3.773438 -5.390625 4.046875 -5.195312 4.265625 -4.9375 C 4.484375 -4.6875 4.625 -4.351562 4.6875 -3.9375 L 3.59375 -3.9375 C 3.53125 -4.238281 3.390625 -4.457031 3.171875 -4.59375 C 2.953125 -4.738281 2.695312 -4.8125 2.40625 -4.8125 C 2.144531 -4.8125 1.925781 -4.753906 1.75 -4.640625 C 1.582031 -4.535156 1.5 -4.375 1.5 -4.15625 C 1.5 -3.988281 1.554688 -3.851562 1.671875 -3.75 C 1.796875 -3.65625 1.953125 -3.578125 2.140625 -3.515625 C 2.335938 -3.460938 2.550781 -3.410156 2.78125 -3.359375 C 3.019531 -3.304688 3.253906 -3.242188 3.484375 -3.171875 C 3.722656 -3.097656 3.941406 -3 4.140625 -2.875 C 4.347656 -2.757812 4.515625 -2.601562 4.640625 -2.40625 C 4.765625 -2.207031 4.828125 -1.945312 4.828125 -1.625 C 4.828125 -1.09375 4.640625 -0.671875 4.265625 -0.359375 C 3.898438 -0.046875 3.390625 0.109375 2.734375 0.109375 Z M 2.734375 0.109375 "/></g></g></g><g fill="#ffffff" fill-opacity="1"><g transform="translate(64.131256, 18.166879)"><g><path d="M 2.734375 0.109375 C 2.460938 0.109375 2.1875 0.0703125 1.90625 0 C 1.632812 -0.0625 1.378906 -0.164062 1.140625 -0.3125 C 0.898438 -0.457031 0.703125 -0.65625 0.546875 -0.90625 C 0.390625 -1.15625 0.289062 -1.460938 0.25 -1.828125 L 1.359375 -1.828125 C 1.421875 -1.554688 1.519531 -1.347656 1.65625 -1.203125 C 1.800781 -1.054688 1.96875 -0.953125 2.15625 -0.890625 C 2.34375 -0.828125 2.535156 -0.796875 2.734375 -0.796875 C 3.023438 -0.796875 3.269531 -0.859375 3.46875 -0.984375 C 3.664062 -1.109375 3.765625 -1.304688 3.765625 -1.578125 C 3.765625 -1.773438 3.695312 -1.925781 3.5625 -2.03125 C 3.4375 -2.132812 3.269531 -2.21875 3.0625 -2.28125 C 2.863281 -2.34375 2.644531 -2.398438 2.40625 -2.453125 C 2.175781 -2.503906 1.945312 -2.5625 1.71875 -2.625 C 1.488281 -2.6875 1.273438 -2.773438 1.078125 -2.890625 C 0.878906 -3.003906 0.722656 -3.15625 0.609375 -3.34375 C 0.492188 -3.53125 0.4375 -3.769531 0.4375 -4.0625 C 0.4375 -4.425781 0.523438 -4.726562 0.703125 -4.96875 C 0.878906 -5.21875 1.113281 -5.40625 1.40625 -5.53125 C 1.707031 -5.65625 2.046875 -5.71875 2.421875 -5.71875 C 2.785156 -5.71875 3.128906 -5.648438 3.453125 -5.515625 C 3.773438 -5.390625 4.046875 -5.195312 4.265625 -4.9375 C 4.484375 -4.6875 4.625 -4.351562 4.6875 -3.9375 L 3.59375 -3.9375 C 3.53125 -4.238281 3.390625 -4.457031 3.171875 -4.59375 C 2.953125 -4.738281 2.695312 -4.8125 2.40625 -4.8125 C 2.144531 -4.8125 1.925781 -4.753906 1.75 -4.640625 C 1.582031 -4.535156 1.5 -4.375 1.5 -4.15625 C 1.5 -3.988281 1.554688 -3.851562 1.671875 -3.75 C 1.796875 -3.65625 1.953125 -3.578125 2.140625 -3.515625 C 2.335938 -3.460938 2.550781 -3.410156 2.78125 -3.359375 C 3.019531 -3.304688 3.253906 -3.242188 3.484375 -3.171875 C 3.722656 -3.097656 3.941406 -3 4.140625 -2.875 C 4.347656 -2.757812 4.515625 -2.601562 4.640625 -2.40625 C 4.765625 -2.207031 4.828125 -1.945312 4.828125 -1.625 C 4.828125 -1.09375 4.640625 -0.671875 4.265625 -0.359375 C 3.898438 -0.046875 3.390625 0.109375 2.734375 0.109375 Z M 2.734375 0.109375 "/></g></g></g><g fill="#ffffff" fill-opacity="1"><g transform="translate(70.420366, 18.166879)"><g><path d="M 4.25 0 L 0.5 0 L 0.5 -5.609375 L 4.25 -5.609375 L 4.25 -4.671875 L 1.5625 -4.671875 L 1.5625 -3.28125 L 3.96875 -3.28125 L 3.96875 -2.34375 L 1.5625 -2.34375 L 1.5625 -0.953125 L 4.25 -0.953125 Z M 4.25 0 "/></g></g></g><g fill="#ffffff" fill-opacity="1"><g transform="translate(76.157151, 18.166879)"><g><path d="M 1.5625 0 L 0.5 0 L 0.5 -5.609375 L 1.6875 -5.609375 L 4 -1.59375 L 4 -5.609375 L 5.0625 -5.609375 L 5.0625 0 L 3.859375 0 L 1.5625 -4.03125 Z M 1.5625 0 "/></g></g></g></g></g></svg>