<svg xmlns="http://www.w3.org/2000/svg" xmlns:xlink="http://www.w3.org/1999/xlink" width="1366" zoomAndPan="magnify" viewBox="0 0 1024.5 576" height="768" preserveAspectRatio="xMidYMid meet" version="1.0"><defs><g/><clipPath id="927a874db2"><path d="M 0 0.140625 L 1024 0.140625 L 1024 575.859375 L 0 575.859375 Z M 0 0.140625 " clip-rule="nonzero"/></clipPath><clipPath id="7988eb1e2f"><rect x="0" width="898" y="0" height="212"/></clipPath></defs><g clip-path="url(#927a874db2)"><path fill="#ffffff" d="M 0 0.140625 L 1024 0.140625 L 1024 575.859375 L 0 575.859375 Z M 0 0.140625 " fill-opacity="1" fill-rule="nonzero"/><path fill="#000000" d="M 0 0.140625 L 1024 0.140625 L 1024 575.859375 L 0 575.859375 Z M 0 0.140625 " fill-opacity="1" fill-rule="nonzero"/></g><g transform="matrix(1, 0, 0, 1, 57, 179)"><g clip-path="url(#7988eb1e2f)"><g fill="#ffffff" fill-opacity="1"><g transform="translate(0.571904, 151.638222)"><g><path d="M 47.78125 -89.140625 C 52.726562 -89.140625 57.617188 -88.570312 62.453125 -87.4375 C 67.296875 -86.3125 70.898438 -85.1875 73.265625 -84.0625 L 76.8125 -82.375 L 67.015625 -62.796875 C 60.265625 -66.398438 53.851562 -68.203125 47.78125 -68.203125 C 44.394531 -68.203125 42 -67.832031 40.59375 -67.09375 C 39.1875 -66.363281 38.484375 -64.988281 38.484375 -62.96875 C 38.484375 -62.519531 38.539062 -62.066406 38.65625 -61.609375 C 38.769531 -61.160156 38.992188 -60.738281 39.328125 -60.34375 C 39.671875 -59.957031 39.984375 -59.625 40.265625 -59.34375 C 40.546875 -59.0625 41.019531 -58.75 41.6875 -58.40625 C 42.363281 -58.070312 42.898438 -57.816406 43.296875 -57.640625 C 43.691406 -57.472656 44.335938 -57.222656 45.234375 -56.890625 C 46.140625 -56.554688 46.816406 -56.300781 47.265625 -56.125 C 47.710938 -55.957031 48.472656 -55.703125 49.546875 -55.359375 C 50.617188 -55.023438 51.4375 -54.800781 52 -54.6875 C 55.488281 -53.675781 58.523438 -52.550781 61.109375 -51.3125 C 63.703125 -50.082031 66.429688 -48.394531 69.296875 -46.25 C 72.171875 -44.113281 74.394531 -41.410156 75.96875 -38.140625 C 77.539062 -34.878906 78.328125 -31.171875 78.328125 -27.015625 C 78.328125 -7.316406 64.65625 2.53125 37.3125 2.53125 C 31.113281 2.53125 25.226562 1.578125 19.65625 -0.328125 C 14.09375 -2.242188 10.070312 -4.160156 7.59375 -6.078125 L 3.875 -9.109375 L 16.03125 -29.546875 C 16.9375 -28.753906 18.117188 -27.820312 19.578125 -26.75 C 21.046875 -25.6875 23.691406 -24.222656 27.515625 -22.359375 C 31.335938 -20.503906 34.65625 -19.578125 37.46875 -19.578125 C 43.664062 -19.578125 46.765625 -21.660156 46.765625 -25.828125 C 46.765625 -27.742188 45.972656 -29.234375 44.390625 -30.296875 C 42.816406 -31.367188 40.144531 -32.578125 36.375 -33.921875 C 32.601562 -35.273438 29.648438 -36.515625 27.515625 -37.640625 C 22.109375 -40.453125 17.828125 -43.628906 14.671875 -47.171875 C 11.523438 -50.722656 9.953125 -55.425781 9.953125 -61.28125 C 9.953125 -70.0625 13.359375 -76.898438 20.171875 -81.796875 C 26.984375 -86.691406 36.1875 -89.140625 47.78125 -89.140625 Z M 47.78125 -89.140625 "/></g></g></g><g fill="#ffffff" fill-opacity="1"><g transform="translate(84.975289, 151.638222)"><g><path d="M 56.21875 -64.65625 C 50.59375 -64.65625 45.753906 -62.570312 41.703125 -58.40625 C 37.648438 -54.238281 35.625 -49.234375 35.625 -43.390625 C 35.625 -37.421875 37.648438 -32.351562 41.703125 -28.1875 C 45.753906 -24.03125 50.59375 -21.953125 56.21875 -21.953125 C 58.914062 -21.953125 61.472656 -22.285156 63.890625 -22.953125 C 66.316406 -23.628906 68.09375 -24.304688 69.21875 -24.984375 L 70.734375 -26 L 80.859375 -5.234375 C 80.066406 -4.671875 78.96875 -3.96875 77.5625 -3.125 C 76.15625 -2.28125 72.945312 -1.128906 67.9375 0.328125 C 62.9375 1.796875 57.566406 2.53125 51.828125 2.53125 C 39.109375 2.53125 27.9375 -1.941406 18.3125 -10.890625 C 8.6875 -19.835938 3.875 -30.554688 3.875 -43.046875 C 3.875 -55.648438 8.6875 -66.484375 18.3125 -75.546875 C 27.9375 -84.609375 39.109375 -89.140625 51.828125 -89.140625 C 57.566406 -89.140625 62.851562 -88.460938 67.6875 -87.109375 C 72.53125 -85.753906 75.960938 -84.40625 77.984375 -83.0625 L 80.859375 -81.03125 L 70.734375 -60.609375 C 67.015625 -63.304688 62.175781 -64.65625 56.21875 -64.65625 Z M 56.21875 -64.65625 "/></g></g></g><g fill="#ffffff" fill-opacity="1"><g transform="translate(169.209871, 151.638222)"><g><path d="M 10.125 0 L 10.125 -145.171875 L 40.015625 -145.171875 L 40.015625 -77.484375 L 40.34375 -77.484375 C 48.113281 -85.253906 56.382812 -89.140625 65.15625 -89.140625 C 69.4375 -89.140625 73.6875 -88.570312 77.90625 -87.4375 C 82.125 -86.3125 86.175781 -84.566406 90.0625 -82.203125 C 93.945312 -79.847656 97.097656 -76.503906 99.515625 -72.171875 C 101.929688 -67.835938 103.140625 -62.800781 103.140625 -57.0625 L 103.140625 0 L 73.265625 0 L 73.265625 -48.953125 C 73.265625 -53.453125 71.828125 -57.390625 68.953125 -60.765625 C 66.085938 -64.148438 62.347656 -65.84375 57.734375 -65.84375 C 53.234375 -65.84375 49.15625 -64.097656 45.5 -60.609375 C 41.84375 -57.117188 40.015625 -53.234375 40.015625 -48.953125 L 40.015625 0 Z M 10.125 0 "/></g></g></g><g fill="#ffffff" fill-opacity="1"><g transform="translate(282.141569, 151.638222)"><g><path d="M 10.125 0 L 10.125 -86.59375 L 40.015625 -86.59375 L 40.015625 -77.484375 L 40.34375 -77.484375 C 48.113281 -85.253906 56.382812 -89.140625 65.15625 -89.140625 C 69.4375 -89.140625 73.6875 -88.570312 77.90625 -87.4375 C 82.125 -86.3125 86.175781 -84.566406 90.0625 -82.203125 C 93.945312 -79.847656 97.097656 -76.503906 99.515625 -72.171875 C 101.929688 -67.835938 103.140625 -62.800781 103.140625 -57.0625 L 103.140625 0 L 73.265625 0 L 73.265625 -48.953125 C 73.265625 -53.453125 71.828125 -57.390625 68.953125 -60.765625 C 66.085938 -64.148438 62.347656 -65.84375 57.734375 -65.84375 C 53.234375 -65.84375 49.15625 -64.097656 45.5 -60.609375 C 41.84375 -57.117188 40.015625 -53.234375 40.015625 -48.953125 L 40.015625 0 Z M 10.125 0 "/></g></g></g><g fill="#ffffff" fill-opacity="1"><g transform="translate(395.073267, 151.638222)"><g><path d="M 97.75 -39.171875 L 34.9375 -39.171875 C 34.9375 -33.085938 36.90625 -28.582031 40.84375 -25.65625 C 44.789062 -22.726562 49.070312 -21.265625 53.6875 -21.265625 C 58.519531 -21.265625 62.34375 -21.910156 65.15625 -23.203125 C 67.96875 -24.503906 71.175781 -27.066406 74.78125 -30.890625 L 96.390625 -20.09375 C 87.390625 -5.007812 72.421875 2.53125 51.484375 2.53125 C 38.429688 2.53125 27.234375 -1.941406 17.890625 -10.890625 C 8.546875 -19.835938 3.875 -30.613281 3.875 -43.21875 C 3.875 -55.820312 8.546875 -66.625 17.890625 -75.625 C 27.234375 -84.632812 38.429688 -89.140625 51.484375 -89.140625 C 65.210938 -89.140625 76.378906 -85.171875 84.984375 -77.234375 C 93.597656 -69.296875 97.90625 -57.957031 97.90625 -43.21875 C 97.90625 -41.1875 97.851562 -39.835938 97.75 -39.171875 Z M 35.78125 -55.703125 L 68.703125 -55.703125 C 68.023438 -60.203125 66.25 -63.660156 63.375 -66.078125 C 60.507812 -68.503906 56.828125 -69.71875 52.328125 -69.71875 C 47.378906 -69.71875 43.441406 -68.421875 40.515625 -65.828125 C 37.585938 -63.242188 36.007812 -59.867188 35.78125 -55.703125 Z M 35.78125 -55.703125 "/></g></g></g><g fill="#ffffff" fill-opacity="1"><g transform="translate(498.214199, 151.638222)"><g><path d="M 6.25 21.265625 L 30.71875 9.28125 C 35.21875 16.707031 43.039062 20.421875 54.1875 20.421875 C 59.363281 20.421875 64.175781 18.757812 68.625 15.4375 C 73.070312 12.125 75.296875 7.035156 75.296875 0.171875 L 75.296875 -6.25 C 70.003906 -0.394531 60.550781 2.53125 46.9375 2.53125 C 34.4375 2.53125 24.132812 -1.882812 16.03125 -10.71875 C 7.925781 -19.550781 3.875 -30.378906 3.875 -43.203125 C 3.875 -56.035156 7.925781 -66.898438 16.03125 -75.796875 C 24.132812 -84.691406 34.4375 -89.140625 46.9375 -89.140625 C 58.070312 -89.140625 67.351562 -85.703125 74.78125 -78.828125 L 75.296875 -78.828125 L 75.296875 -86.59375 L 105.171875 -86.59375 L 105.171875 2.359375 C 105.171875 16.429688 100.5 27.289062 91.15625 34.9375 C 81.8125 42.59375 69.488281 46.421875 54.1875 46.421875 C 29.425781 46.421875 13.445312 38.035156 6.25 21.265625 Z M 41.4375 -57.890625 C 37.5625 -54.066406 35.625 -49.171875 35.625 -43.203125 C 35.625 -37.242188 37.476562 -32.378906 41.1875 -28.609375 C 44.90625 -24.835938 49.800781 -22.953125 55.875 -22.953125 C 61.726562 -22.953125 66.539062 -24.863281 70.3125 -28.6875 C 74.082031 -32.519531 75.96875 -37.363281 75.96875 -43.21875 C 75.96875 -49.175781 74.023438 -54.066406 70.140625 -57.890625 C 66.253906 -61.722656 61.5 -63.640625 55.875 -63.640625 C 50.132812 -63.640625 45.320312 -61.722656 41.4375 -57.890625 Z M 41.4375 -57.890625 "/></g></g></g><g fill="#ffffff" fill-opacity="1"><g transform="translate(614.859639, 151.638222)"><g><path d="M 6.25 21.265625 L 30.71875 9.28125 C 35.21875 16.707031 43.039062 20.421875 54.1875 20.421875 C 59.363281 20.421875 64.175781 18.757812 68.625 15.4375 C 73.070312 12.125 75.296875 7.035156 75.296875 0.171875 L 75.296875 -6.25 C 70.003906 -0.394531 60.550781 2.53125 46.9375 2.53125 C 34.4375 2.53125 24.132812 -1.882812 16.03125 -10.71875 C 7.925781 -19.550781 3.875 -30.378906 3.875 -43.203125 C 3.875 -56.035156 7.925781 -66.898438 16.03125 -75.796875 C 24.132812 -84.691406 34.4375 -89.140625 46.9375 -89.140625 C 58.070312 -89.140625 67.351562 -85.703125 74.78125 -78.828125 L 75.296875 -78.828125 L 75.296875 -86.59375 L 105.171875 -86.59375 L 105.171875 2.359375 C 105.171875 16.429688 100.5 27.289062 91.15625 34.9375 C 81.8125 42.59375 69.488281 46.421875 54.1875 46.421875 C 29.425781 46.421875 13.445312 38.035156 6.25 21.265625 Z M 41.4375 -57.890625 C 37.5625 -54.066406 35.625 -49.171875 35.625 -43.203125 C 35.625 -37.242188 37.476562 -32.378906 41.1875 -28.609375 C 44.90625 -24.835938 49.800781 -22.953125 55.875 -22.953125 C 61.726562 -22.953125 66.539062 -24.863281 70.3125 -28.6875 C 74.082031 -32.519531 75.96875 -37.363281 75.96875 -43.21875 C 75.96875 -49.175781 74.023438 -54.066406 70.140625 -57.890625 C 66.253906 -61.722656 61.5 -63.640625 55.875 -63.640625 C 50.132812 -63.640625 45.320312 -61.722656 41.4375 -57.890625 Z M 41.4375 -57.890625 "/></g></g></g><g fill="#ffffff" fill-opacity="1"><g transform="translate(731.505113, 151.638222)"><g><path d="M 97.75 -39.171875 L 34.9375 -39.171875 C 34.9375 -33.085938 36.90625 -28.582031 40.84375 -25.65625 C 44.789062 -22.726562 49.070312 -21.265625 53.6875 -21.265625 C 58.519531 -21.265625 62.34375 -21.910156 65.15625 -23.203125 C 67.96875 -24.503906 71.175781 -27.066406 74.78125 -30.890625 L 96.390625 -20.09375 C 87.390625 -5.007812 72.421875 2.53125 51.484375 2.53125 C 38.429688 2.53125 27.234375 -1.941406 17.890625 -10.890625 C 8.546875 -19.835938 3.875 -30.613281 3.875 -43.21875 C 3.875 -55.820312 8.546875 -66.625 17.890625 -75.625 C 27.234375 -84.632812 38.429688 -89.140625 51.484375 -89.140625 C 65.210938 -89.140625 76.378906 -85.171875 84.984375 -77.234375 C 93.597656 -69.296875 97.90625 -57.957031 97.90625 -43.21875 C 97.90625 -41.1875 97.851562 -39.835938 97.75 -39.171875 Z M 35.78125 -55.703125 L 68.703125 -55.703125 C 68.023438 -60.203125 66.25 -63.660156 63.375 -66.078125 C 60.507812 -68.503906 56.828125 -69.71875 52.328125 -69.71875 C 47.378906 -69.71875 43.441406 -68.421875 40.515625 -65.828125 C 37.585938 -63.242188 36.007812 -59.867188 35.78125 -55.703125 Z M 35.78125 -55.703125 "/></g></g></g><g fill="#ffffff" fill-opacity="1"><g transform="translate(834.646045, 151.638222)"><g><path d="M 29.375 -36.125 C 34.769531 -36.125 39.351562 -34.238281 43.125 -30.46875 C 46.894531 -26.695312 48.78125 -22.113281 48.78125 -16.71875 C 48.78125 -11.425781 46.894531 -6.894531 43.125 -3.125 C 39.351562 0.644531 34.769531 2.53125 29.375 2.53125 C 24.082031 2.53125 19.550781 0.644531 15.78125 -3.125 C 12.007812 -6.894531 10.125 -11.425781 10.125 -16.71875 C 10.125 -22.113281 12.007812 -26.695312 15.78125 -30.46875 C 19.550781 -34.238281 24.082031 -36.125 29.375 -36.125 Z M 29.375 -36.125 "/></g></g></g></g></g></svg>